<svg width="64" height="64" viewBox="0 0 64 64" fill="none" xmlns="http://www.w3.org/2000/svg">
<rect x="4.5" y="4.5" width="59" height="59" rx="9.5" fill="url(#paint0_linear)" stroke="url(#paint1_linear)"/>
<rect width="60" height="60" rx="10" fill="black"/>
<path d="M30.0003 50.8337C18.4941 50.8337 9.16699 41.5066 9.16699 30.0003C9.16699 18.4941 18.4941 9.16699 30.0003 9.16699C41.5066 9.16699 50.8337 18.4941 50.8337 30.0003C50.8337 41.5066 41.5066 50.8337 30.0003 50.8337ZM30.0003 46.667C34.4206 46.667 38.6598 44.911 41.7854 41.7854C44.911 38.6598 46.667 34.4206 46.667 30.0003C46.667 25.5801 44.911 21.3408 41.7854 18.2152C38.6598 15.0896 34.4206 13.3337 30.0003 13.3337C25.5801 13.3337 21.3408 15.0896 18.2152 18.2152C15.0896 21.3408 13.3337 25.5801 13.3337 30.0003C13.3337 34.4206 15.0896 38.6598 18.2152 41.7854C21.3408 44.911 25.5801 46.667 30.0003 46.667V46.667ZM27.9232 38.3337L19.0837 29.4941L22.0295 26.5482L27.9232 32.442L39.7066 20.6566L42.6545 23.6024L27.9232 38.3337Z" fill="white"/>
<defs>
<linearGradient id="paint0_linear" x1="5.78125" y1="9.25" x2="55.2717" y2="11.0175" gradientUnits="userSpaceOnUse">
<stop stop-color="#ED5B84"/>
<stop offset="1" stop-color="#BF31FF"/>
</linearGradient>
<linearGradient id="paint1_linear" x1="5.78125" y1="9.25" x2="55.2717" y2="11.0175" gradientUnits="userSpaceOnUse">
<stop stop-color="#ED5B84"/>
<stop offset="1" stop-color="#BF31FF"/>
</linearGradient>
</defs>
</svg>
