<svg width="30" height="30" viewBox="0 0 30 30" fill="none" xmlns="http://www.w3.org/2000/svg">
<path d="M27.7024 7.06966C26.7481 7.49178 25.7361 7.76901 24.6999 7.89216C25.7921 7.23896 26.6095 6.21093 26.9999 4.99966C25.9749 5.60966 24.8511 6.03716 23.6799 6.26841C22.8931 5.42664 21.8503 4.86837 20.7136 4.6804C19.5768 4.49242 18.4098 4.68528 17.394 5.22898C16.3781 5.77268 15.5704 6.63677 15.0963 7.6869C14.6222 8.73704 14.5083 9.91439 14.7724 11.0359C12.6938 10.9317 10.6603 10.3916 8.80399 9.45049C6.94769 8.50942 5.31004 7.18847 3.99738 5.57341C3.53275 6.37148 3.28858 7.2787 3.28988 8.20216C3.28988 10.0147 4.21238 11.6159 5.61488 12.5534C4.78489 12.5273 3.97317 12.3031 3.24738 11.8997V11.9647C3.24763 13.1718 3.66534 14.3417 4.42969 15.276C5.19404 16.2103 6.25799 16.8515 7.44113 17.0909C6.67065 17.2997 5.86277 17.3305 5.07863 17.1809C5.41222 18.22 6.06239 19.1287 6.93812 19.7798C7.81385 20.4309 8.87129 20.7919 9.96238 20.8122C8.87798 21.6638 7.63635 22.2934 6.30848 22.6649C4.98061 23.0364 3.59254 23.1425 2.22363 22.9772C4.61325 24.514 7.395 25.3298 10.2361 25.3272C19.8524 25.3272 25.1111 17.3609 25.1111 10.4522C25.1111 10.2272 25.1049 9.99966 25.0949 9.77716C26.1185 9.03737 27.0019 8.12094 27.7036 7.07091L27.7024 7.06966Z" fill="white"/>
</svg>
